<?xml version="1.0" standalone="no"?>
<!DOCTYPE svg PUBLIC "-//W3C//DTD SVG 20010904//EN"
 "http://www.w3.org/TR/2001/REC-SVG-20010904/DTD/svg10.dtd">
<svg version="1.0" xmlns="http://www.w3.org/2000/svg"
 width="1024.000000pt" height="1024.000000pt" viewBox="0 0 1024.000000 1024.000000"
 preserveAspectRatio="xMidYMid meet">

<g transform="translate(0.000000,1024.000000) scale(0.100000,-0.100000)"
fill="#000000" stroke="none">
<path d="M7900 6848 c0 -3 7 -22 16 -43 14 -34 14 -39 0 -54 -9 -9 -16 -11
-16 -4 0 19 -66 53 -104 53 -20 0 -36 -4 -36 -10 0 -5 -18 -10 -40 -10 -22 0
-40 -4 -40 -10 0 -5 -18 -10 -40 -10 -53 0 -51 -18 3 -23 l42 -4 -42 -1 c-24
-1 -43 -6 -43 -12 0 -5 -46 -8 -110 -7 -60 1 -110 5 -110 10 0 4 -5 7 -11 7
-5 0 -8 -4 -5 -8 2 -4 1 -14 -4 -22 -7 -12 -10 -12 -16 3 -8 21 -40 22 -48 2
-4 -12 -29 -15 -131 -15 -104 0 -125 -2 -125 -15 0 -12 -12 -15 -52 -14 -29 0
-47 3 -40 6 17 7 15 33 -3 33 -8 0 -15 -4 -15 -9 0 -13 -57 -31 -96 -31 -20 0
-34 -5 -34 -12 -1 -7 -7 -2 -14 11 l-13 24 -13 -24 -13 -24 -10 23 c-8 18 -18
22 -54 22 -58 0 -125 -21 -118 -38 3 -8 0 -10 -8 -5 -17 11 -66 12 -73 2 -3
-5 -23 -9 -45 -9 -21 0 -39 -4 -39 -10 0 -14 -32 1 -56 27 -12 13 -23 23 -26
23 -13 0 -48 -39 -48 -53 0 -9 -4 -19 -10 -22 -6 -4 -10 5 -10 19 0 48 -19 26
-26 -30 -8 -68 9 -210 37 -301 22 -70 77 -187 110 -235 17 -23 18 -33 9 -72
-46 -206 -202 -378 -378 -415 -29 -6 -127 -11 -217 -11 l-165 0 0 533 c0 525
-3 607 -22 607 -6 0 -7 -11 -4 -24 5 -19 1 -26 -14 -31 -11 -3 -29 -3 -40 0
-18 6 -20 3 -15 -17 6 -23 5 -23 -65 -20 -68 4 -72 2 -99 -27 -18 -19 -39 -31
-55 -31 -15 0 -26 -6 -26 -14 0 -11 -34 -15 -159 -21 -123 -6 -161 -10 -165
-21 -4 -11 -16 -13 -46 -8 -29 5 -40 3 -40 -6 0 -10 -3 -10 -15 0 -8 7 -15 21
-15 31 0 12 -7 19 -20 19 -16 0 -20 8 -23 63 -3 65 -10 -479 -10 -830 l0 -203
-199 0 -198 0 -2 -287 c-2 -159 -3 -337 -3 -398 l0 -110 175 -2 c96 -1 185 -2
198 -3 l22 0 0 -1007 c0 -650 4 -1031 11 -1072 45 -283 343 -440 593 -314 65
33 146 111 179 171 59 108 57 73 57 1200 l0 1034 158 -7 c284 -12 460 15 639
100 128 60 194 106 300 208 163 157 275 353 333 583 l10 41 89 7 c229 17 426
109 579 271 90 94 133 159 177 266 51 127 71 264 56 399 -6 58 -16 107 -21
108 -6 2 -8 8 -4 13 6 10 -14 79 -27 94 -5 5 -9 6 -9 3z m-263 -134 c-3 -3
-12 -4 -19 -1 -8 3 -5 6 6 6 11 1 17 -2 13 -5z m-997 -64 c0 -5 -5 -10 -11
-10 -5 0 -7 5 -4 10 3 6 8 10 11 10 2 0 4 -4 4 -10z m-330 -25 c0 -8 -4 -15
-10 -15 -5 0 -10 7 -10 15 0 8 5 15 10 15 6 0 10 -7 10 -15z"/>
<path d="M6250 6755 c0 -5 5 -17 10 -25 5 -8 10 -10 10 -5 0 6 -5 17 -10 25
-5 8 -10 11 -10 5z"/>
<path d="M6241 6704 c0 -11 3 -14 6 -6 3 7 2 16 -1 19 -3 4 -6 -2 -5 -13z"/>
<path d="M5540 6650 c0 -5 9 -10 20 -10 11 0 20 5 20 10 0 6 -9 10 -20 10 -11
0 -20 -4 -20 -10z"/>
<path d="M6378 6643 c7 -3 16 -2 19 1 4 3 -2 6 -13 5 -11 0 -14 -3 -6 -6z"/>
<path d="M4373 4680 c0 -25 2 -35 4 -22 2 12 2 32 0 45 -2 12 -4 2 -4 -23z"/>
<path d="M4353 4634 c10 -18 -4 -76 -17 -71 -15 6 -16 -35 -2 -45 7 -5 6 -8
-3 -8 -7 0 -11 -6 -8 -12 2 -7 0 -22 -4 -33 l-9 -20 1 20 c2 33 -1 49 -10 64
-8 12 -12 12 -25 -2 -9 -8 -16 -23 -16 -32 0 -13 -6 -16 -21 -12 -18 5 -20 2
-16 -20 3 -19 0 -27 -14 -30 -11 -3 -16 -10 -12 -17 4 -6 -1 -5 -10 3 -14 11
-18 11 -23 -3 -3 -9 -12 -16 -19 -16 -6 0 -17 -10 -23 -22 l-11 -23 -7 23 c-8
27 -24 29 -24 3 0 -10 -9 -21 -20 -24 -11 -3 -20 -12 -20 -21 0 -10 -9 -16
-24 -16 -18 0 -23 -4 -20 -17 7 -25 -26 -42 -96 -50 l-60 -6 0 -43 0 -44 -202
3 c-112 2 -185 0 -163 -3 27 -3 41 -11 43 -22 3 -16 -8 -18 -117 -18 -113 0
-121 -1 -121 -19 0 -16 8 -21 43 -24 23 -2 -13 -4 -80 -5 l-123 -2 0 -35 c0
-34 -1 -35 -40 -35 -33 0 -40 3 -40 19 0 11 -6 22 -12 25 -10 5 -10 7 0 12 6
3 12 11 12 18 0 9 -22 12 -78 12 -73 -1 -78 -2 -80 -23 -1 -19 4 -22 41 -26
l42 -4 -42 -1 c-35 -2 -43 -6 -43 -21 0 -23 -16 -37 -23 -19 -3 9 -12 6 -29
-9 -13 -13 -30 -23 -36 -23 -7 0 -12 -7 -12 -15 0 -8 -10 -26 -22 -41 l-23
-26 -6 24 -7 23 -2 -25 c-2 -24 -3 -23 -10 5 l-8 30 -1 -27 c-1 -35 -21 -37
-21 -3 0 34 -20 32 -21 -2 -1 -36 -28 70 -29 112 0 20 -3 26 -11 18 -7 -7 -9
-64 -7 -166 3 -149 4 -157 27 -181 l24 -26 348 0 c191 0 383 5 426 11 144 19
301 80 448 174 69 45 217 184 209 197 -3 5 0 7 6 6 19 -5 143 184 185 281 52
118 93 287 75 304 -8 7 -11 8 -7 1z m-79 -240 c4 -12 0 -28 -10 -40 -8 -10
-13 -13 -9 -6 4 7 1 19 -5 27 -8 9 -8 15 -2 15 5 0 8 10 5 23 -7 28 12 12 21
-19z m-561 -241 c-7 -2 -19 -2 -25 0 -7 3 -2 5 12 5 14 0 19 -2 13 -5z"/>
<path d="M4331 4594 c0 -11 3 -14 6 -6 3 7 2 16 -1 19 -3 4 -6 -2 -5 -13z"/>
<path d="M3745 4250 c-3 -5 -1 -10 4 -10 6 0 11 5 11 10 0 6 -2 10 -4 10 -3 0
-8 -4 -11 -10z"/>
<path d="M3120 4170 c0 -6 7 -10 15 -10 8 0 15 2 15 4 0 2 -7 6 -15 10 -8 3
-15 1 -15 -4z"/>
<path d="M3275 4160 c-23 -6 -17 -7 23 -5 29 2 56 6 59 9 8 8 -45 6 -82 -4z"/>
<path d="M3120 4100 c0 -17 7 -20 40 -20 33 0 40 3 40 20 0 17 -7 20 -40 20
-33 0 -40 -3 -40 -20z"/>
<path d="M2800 4010 c0 -5 5 -10 11 -10 5 0 7 5 4 10 -3 6 -8 10 -11 10 -2 0
-4 -4 -4 -10z"/>
</g>
</svg>
